<svg xmlns="http://www.w3.org/2000/svg" width="175" height="255" viewBox="0 0 175 255" fill="none"><g transform="translate(0,0) scale(0.325255) translate(-216,-84)"><path fill-rule="evenodd" d="M739.02 85.479C743.735 84.7315 746.855 87.097 748.18 91.667C752.61 106.887 753.56 122.642 752.77 138.316C750.605 181.337 722.515 212.72 691.385 239.187C681.295 247.983 671.705 254.062 666.07 266.766C657.935 285.098 659.76 302.441 664.05 321.377C666.4 331.772 668.85 342.886 670.775 353.409C675.99 381.869 679.775 411.69 680.44 440.628C681.865 507.145 668.83 573.18 642.24 634.17C661.2 633.405 674.345 625.69 691.53 620.02C695.385 618.75 701.595 618.865 705 621.59C716.175 630.51 708.09 645.135 701.355 654.035C682.75 676.755 658.685 701.64 630.61 711.745C622.11 714.805 612.675 714.41 604.02 715.655C593.935 726.84 585.665 737.13 574.815 748.31C537.215 787.055 493.408 820.465 443.375 841.375C426.157 848.615 408.369 854.425 390.194 858.735C344.275 869.255 287.975 871.13 243.13 853.955C206.455 839.91 216.203 815.235 228.75 786.375C236.279 770.315 245.364 755.035 255.875 740.75C266.472 726.27 278.027 712.79 287.392 697.42C293.155 687.96 298.442 678.105 304.318 668.75C310.562 658.645 317.768 649.17 325.836 640.455C362.192 600.525 407.841 566.705 446.88 529.37C462.435 514.495 477.004 500.23 490.333 483.315C506.68 462.568 510.985 439.048 518.725 414.611C521.025 408.261 522.48 402.113 525.945 396.272C529.02 391.09 535.78 385.32 541.845 389.66C547.81 393.925 549.365 403.549 550.705 410.354C566.125 387.436 583.135 346.871 588.52 320.05C595.205 290.35 584.885 266.884 555.415 256.193C526.905 245.849 505.32 235.636 487.453 209.021C476.458 192.35 469.894 173.151 468.383 153.238C468.048 149.146 466.99 135.845 471.641 134.088C479.779 131.014 490.614 143.803 496.625 148.395C501.03 151.751 505.75 154.671 510.715 157.116C523.095 163.148 540.685 165.782 554.355 165.504C585.665 164.866 598.32 172.463 613.705 199.444C626.225 160.565 647.305 153.374 682.93 138.944C693.755 134.559 706.375 128.188 715.34 120.679C720.6 116.281 724.99 110.941 728.295 104.932C731.975 98.176 733.515 89.6235 739.02 85.479Z M573.165 721.625C577.6 720.965 583.115 720.305 587.44 719.44C524.74 792.645 442.991 847.625 344.784 855.585C313.245 858.14 268.997 856.58 240.279 841.77C236.673 840.005 234.443 838.03 231.471 835.43C273.028 836.075 312.294 811.67 346.796 790.865C357.295 784.62 369.152 773.835 380.306 769.39C410.772 757.26 444.365 759.745 471.472 738.065C477.175 733.5 488.682 723.17 495.366 720.935C499.875 719.43 515.64 721.985 521.575 722.615C523.915 722.825 527.2 723.02 529.46 723.33C532.835 723.55 538.43 724.08 541.65 723.99L551.18 724.02C555.345 723.89 560.535 723.38 564.62 722.835C565.895 722.43 571.51 721.83 573.165 721.625Z M443.885 712.145C446.212 711.92 450.251 711.625 452.072 712.97C451.902 714.75 444.123 724.93 442.677 726.64C440.745 728.915 433.612 728.745 430.507 728.63C427.46 729.43 425.511 731.115 422.918 732.93C426.701 722.025 431.807 714.1 443.885 712.145Z" fill="#0B5191"/></g></svg>